<?xml version="1.0" encoding="UTF-8" standalone="no" ?>
<!DOCTYPE svg PUBLIC "-//W3C//DTD SVG 1.1//EN" "http://www.w3.org/Graphics/SVG/1.1/DTD/svg11.dtd">
<svg xmlns="http://www.w3.org/2000/svg" xmlns:xlink="http://www.w3.org/1999/xlink" version="1.1" width="640"
	height="480" viewBox="0 0 640 480" xml:space="preserve">
	<defs>
	</defs>
	<g transform="matrix(1 0 0 1 321.14 333.43)">
		<g style="">
			<g transform="matrix(1 0 0 1 0.55 -156.57)">
				<path
					style="stroke: none; stroke-width: 1; stroke-dasharray: none; stroke-linecap: butt; stroke-dashoffset: 0; stroke-linejoin: miter; stroke-miterlimit: 4; fill: rgb(249,249,250); fill-rule: evenodd; opacity: 1;"
					transform=" translate(-512.55, -355.43)"
					d="M 556.5 255.5 C 569.228 255.08 581.894 255.58 594.5 257 C 604.974 260.807 612.141 267.974 616 278.5 C 618.408 280.956 621.241 282.789 624.5 284 C 638.184 288.127 652.184 290.127 666.5 290 C 671.746 291.237 673.58 294.404 672 299.5 C 669.411 305.016 666.078 310.016 662 314.5 C 656.526 327.964 648.692 339.797 638.5 350 C 634.729 352.219 630.729 353.885 626.5 355 C 618.5 355.333 610.5 355.667 602.5 356 C 593.558 357.606 587.725 362.773 585 371.5 C 583.191 378.065 582.025 384.731 581.5 391.5 C 581.482 394.924 581.982 398.257 583 401.5 C 584.009 402.658 585.342 403.325 587 403.5 C 612.254 398.382 637.754 396.548 663.5 398 C 671.525 402.815 672.525 408.815 666.5 416 C 647.203 417.001 627.87 418.335 608.5 420 C 573.743 424.638 541.743 436.471 512.5 455.5 C 464.765 427.512 413.098 414.679 357.5 417 C 350.911 410.591 350.911 404.258 357.5 398 C 377.222 397.065 396.889 397.731 416.5 400 C 433.827 402.664 450.827 406.33 467.5 411 C 480.523 395.125 492.19 378.292 502.5 360.5 C 508.359 371.193 516.693 379.36 527.5 385 C 551.398 390.958 565.898 381.791 571 357.5 C 575.27 332.198 573.937 307.198 567 282.5 C 566.261 278.938 564.761 275.772 562.5 273 C 559.97 271.578 557.303 271.245 554.5 272 C 553.02 273.299 552.354 274.966 552.5 277 C 560.162 302.451 561.996 328.284 558 354.5 C 553.453 373.194 542.953 377.694 526.5 368 C 519.036 359.587 513.203 350.087 509 339.5 C 507.412 337.032 505.578 336.866 503.5 339 C 495.397 340.376 492.064 336.876 493.5 328.5 C 498.977 303.385 511.31 282.218 530.5 265 C 538.593 259.987 547.259 256.82 556.5 255.5 Z"
					stroke-linecap="round" />
			</g>
			<g transform="matrix(1 0 0 1 -0.49 -42.77)">
				<path
					style="stroke: none; stroke-width: 1; stroke-dasharray: none; stroke-linecap: butt; stroke-dashoffset: 0; stroke-linejoin: miter; stroke-miterlimit: 4; fill: rgb(247,247,248); fill-rule: evenodd; opacity: 1;"
					transform=" translate(-511.51, -469.23)"
					d="M 358.5 439.5 C 413.799 436.117 464.966 448.783 512 477.5 C 558.476 447.882 609.309 435.382 664.5 440 C 671.017 444.245 672.183 449.745 668 456.5 C 667.097 457.701 665.931 458.535 664.5 459 C 622.352 456.826 582.018 464.159 543.5 481 C 532.408 486.291 521.908 492.458 512 499.5 C 465.219 470.011 414.053 456.511 358.5 459 C 352.612 455.153 351.112 449.987 354 443.5 C 355.397 441.93 356.897 440.596 358.5 439.5 Z"
					stroke-linecap="round" />
			</g>
			<g transform="matrix(1 0 0 1 -0.39 0.02)">
				<path
					style="stroke: none; stroke-width: 1; stroke-dasharray: none; stroke-linecap: butt; stroke-dashoffset: 0; stroke-linejoin: miter; stroke-miterlimit: 4; fill: rgb(248,248,249); fill-rule: evenodd; opacity: 1;"
					transform=" translate(-511.61, -512.02)"
					d="M 607.5 484.5 C 612.731 484.556 617.731 483.889 622.5 482.5 C 636.474 481.404 650.474 481.238 664.5 482 C 672.159 487.471 672.493 493.471 665.5 500 C 618.071 498.041 573.404 508.041 531.5 530 C 524.963 534.432 518.297 538.599 511.5 542.5 C 464.957 511.859 413.624 497.692 357.5 500 C 352.368 495.718 351.368 490.551 354.5 484.5 C 397.672 478.621 439.339 484.787 479.5 503 C 490.657 508.409 501.324 514.576 511.5 521.5 C 540.412 501.305 572.412 488.971 607.5 484.5 Z"
					stroke-linecap="round" />
			</g>
			<g transform="matrix(1 0 0 1 -0.49 42.35)">
				<path
					style="stroke: none; stroke-width: 1; stroke-dasharray: none; stroke-linecap: butt; stroke-dashoffset: 0; stroke-linejoin: miter; stroke-miterlimit: 4; fill: rgb(247,247,248); fill-rule: evenodd; opacity: 1;"
					transform=" translate(-511.51, -554.35)"
					d="M 357.5 522.5 C 400.128 520.547 440.794 528.381 479.5 546 C 490.764 551.878 501.597 558.378 512 565.5 C 547.73 539.254 587.897 525.087 632.5 523 C 643.167 522.333 653.833 522.333 664.5 523 C 671.017 527.245 672.183 532.745 668 539.5 C 666.581 540.46 665.081 541.293 663.5 542 C 620.206 540.075 579.206 548.742 540.5 568 C 530.456 573.682 520.789 579.849 511.5 586.5 C 465.597 554.768 414.597 539.934 358.5 542 C 350.94 535.902 350.607 529.402 357.5 522.5 Z"
					stroke-linecap="round" />
			</g>
		</g>
	</g>
</svg>